<svg width="3271" height="722" xmlns="http://www.w3.org/2000/svg" xmlns:xlink="http://www.w3.org/1999/xlink" xml:space="preserve" overflow="hidden"><g transform="translate(-531 -574)"><path d="M0 15C-1.33679e-15 6.71571 4.701-1.90969e-15 10.5-3.81939e-15 16.299-7.63878e-15 21 6.71571 21 15 21 23.2842 16.299 29.9999 10.5 29.9999 4.701 29.9999-6.68394e-15 23.2842 0 15Z" stroke="#0D0D0D" stroke-width="4.58333" stroke-miterlimit="8" fill="#D9D9D9" fill-rule="evenodd" transform="matrix(-1 0 0 1 2548.5 960.5)"/><path d="M2696.5 612.601C2696.5 592.663 2712.66 576.5 2732.6 576.5L3763.4 576.5C3783.34 576.5 3799.5 592.663 3799.5 612.601L3799.5 1257.4C3799.5 1277.34 3783.34 1293.5 3763.4 1293.5L2732.6 1293.5C2712.66 1293.5 2696.5 1277.34 2696.5 1257.4Z" stroke="#0D0D0D" stroke-width="4.58333" stroke-miterlimit="8" fill="#ECECEC" fill-rule="evenodd" fill-opacity="0.498039"/><text font-family="Calibri,Calibri_MSFontService,sans-serif" font-weight="400" font-size="83" transform="matrix(1 0 0 1 3106.13 680)">OUTPUT</text><path d="M533.5 612.601C533.5 592.663 549.663 576.5 569.601 576.5L1925.4 576.5C1945.34 576.5 1961.5 592.663 1961.5 612.601L1961.5 1257.4C1961.5 1277.34 1945.34 1293.5 1925.4 1293.5L569.601 1293.5C549.663 1293.5 533.5 1277.34 533.5 1257.4Z" stroke="#0D0D0D" stroke-width="4.58333" stroke-miterlimit="8" fill="#ECECEC" fill-rule="evenodd" fill-opacity="0.498039"/><text font-family="Calibri,Calibri_MSFontService,sans-serif" font-weight="400" font-size="83" transform="matrix(1 0 0 1 1142.55 680)">INPUT</text><path d="M2093.5 911C2093.5 893.051 2108.05 878.5 2126 878.5L2516 878.5C2533.95 878.5 2548.5 893.051 2548.5 911L2548.5 1041C2548.5 1058.95 2533.95 1073.5 2516 1073.5L2126 1073.5C2108.05 1073.5 2093.5 1058.95 2093.5 1041Z" stroke="#0D0D0D" stroke-width="4.58333" stroke-miterlimit="8" fill="#BDD7EE" fill-rule="evenodd"/><text font-family="Calibri,Calibri_MSFontService,sans-serif" font-weight="400" font-size="83" transform="matrix(1 0 0 1 2212.92 1003)">Server</text><path d="M3281.5 813.001C3281.5 795.051 3296.05 780.5 3314 780.5L3703 780.5C3720.95 780.5 3735.5 795.051 3735.5 813.001L3735.5 943C3735.5 960.949 3720.95 975.5 3703 975.5L3314 975.5C3296.05 975.5 3281.5 960.949 3281.5 943Z" stroke="#0D0D0D" stroke-width="4.58333" stroke-miterlimit="8" fill="#BDD7EE" fill-rule="evenodd"/><text font-family="Calibri,Calibri_MSFontService,sans-serif" font-weight="400" font-size="83" transform="matrix(1 0 0 1 3440.81 905)">App</text><path d="M21.9069 6.82447 215.469 77.9085 214.679 80.0596 21.1169 8.97567ZM21.0743 22.3872 0 0 30.5543-3.42707ZM215.512 64.4969 236.586 86.8841 206.032 90.3112Z" fill="#0D0D0D" transform="matrix(1 0 0 -1 2545 964.884)"/><path d="M588.5 927.667C588.5 914.32 599.32 903.5 612.667 903.5L709.333 903.5C722.68 903.5 733.5 914.32 733.5 927.667L733.5 1024.33C733.5 1037.68 722.68 1048.5 709.333 1048.5L612.667 1048.5C599.32 1048.5 588.5 1037.68 588.5 1024.33Z" stroke="#0D0D0D" stroke-width="4.58333" stroke-miterlimit="8" fill="#DEEBF7" fill-rule="evenodd"/><g><g><g><path d="M119.632 61.1447 38.6739 27.5498 25.5448 59.241 51.3749 70.0868 54.2291 71.2285 54.2291 74.9988C54.2228 81.3122 49.1073 86.429 42.7939 86.4369L19.9791 86.4369 19.9791 19.9791 17.125 19.9791 17.125 117.021 19.9791 117.021 19.9791 89.2925 42.7939 89.2925C50.6825 89.2822 57.0745 82.8889 57.0832 75.0003L57.0832 72.373 59.9374 73.5147 88.803 85.4122 96.6748 79.2159 109.964 84.8657 125.218 72.8653 111.959 67.1841ZM88.352 82.1385 61.0006 70.8646 52.4823 67.4581 29.2694 57.7083 40.2194 31.2816 114.041 61.9153ZM119.676 73.5946 109.528 81.5791 99.2364 77.2051 109.407 69.1977Z" transform="matrix(1 0 0 1 596 908)"/><path d="M55.6562 51.3892C52.5036 51.3892 49.9478 53.945 49.9478 57.0975 49.9478 60.2501 52.5036 62.8058 55.6562 62.8058 58.8087 62.8058 61.3645 60.2501 61.3645 57.0975 61.3544 53.9491 58.8046 51.3993 55.6562 51.3892ZM55.6562 59.9517C54.0798 59.9517 52.802 58.6739 52.802 57.0975 52.802 55.5212 54.0798 54.2434 55.6562 54.2434 57.2325 54.2434 58.5103 55.5212 58.5103 57.0975 58.5119 58.6739 57.2354 59.953 55.659 59.9545 55.658 59.9545 55.6572 59.9545 55.6562 59.9545Z" transform="matrix(1 0 0 1 596 908)"/></g></g></g><path d="M733.027 973.854 792.46 975.286 792.405 977.577 732.972 976.145ZM788.181 962.575 815.342 976.983 787.519 990.067Z" fill="#0D0D0D"/><path d="M2794.2 1016.67C2894.64 992.778 2995.07 1040.56 3095.5 1016.67L3069.8 1129.33C2969.36 1153.22 2868.93 1105.44 2768.5 1129.33Z" stroke="#0D0D0D" stroke-width="4.58333" stroke-miterlimit="8" fill="#E2F0D9" fill-rule="evenodd"/><text font-family="Calibri,Calibri_MSFontService,sans-serif" font-weight="400" font-size="83" transform="matrix(1 0 0 1 2843.93 1100)">HTTP</text><path d="M2794.2 822.61C2894.64 798.909 2995.07 846.311 3095.5 822.61L3069.8 934.39C2969.36 958.09 2868.93 910.689 2768.5 934.39Z" stroke="#0D0D0D" stroke-width="4.58333" stroke-miterlimit="8" fill="#E2F0D9" fill-rule="evenodd"/><text font-family="Calibri,Calibri_MSFontService,sans-serif" font-weight="400" font-size="83" transform="matrix(1 0 0 1 2828.84 905)">MQTT</text><path d="M2566.91 992.824 2760.47 1063.91 2759.68 1066.06 2566.12 994.976ZM2566.07 1008.39 2545 986 2575.55 982.573ZM2760.51 1050.5 2781.59 1072.88 2751.03 1076.31Z" fill="#0D0D0D"/><path d="M3104.92 876.854 3257.87 876.854 3257.87 879.146 3104.92 879.146ZM3109.5 891.75 3082 878 3109.5 864.25ZM3253.29 864.25 3280.79 878 3253.29 891.75Z" fill="#0D0D0D"/><path d="M815.5 913C815.5 895.051 830.051 880.5 848 880.5L1302 880.5C1319.95 880.5 1334.5 895.051 1334.5 913L1334.5 1043C1334.5 1060.95 1319.95 1075.5 1302 1075.5L848 1075.5C830.051 1075.5 815.5 1060.95 815.5 1043Z" stroke="#0D0D0D" stroke-width="4.58333" stroke-miterlimit="8" fill="#BDD7EE" fill-rule="evenodd"/><text font-family="Calibri,Calibri_MSFontService,sans-serif" font-weight="400" font-size="83" transform="matrix(1 0 0 1 864.612 1005)">Raspberry Pi </text><path d="M1581.12 921.667C1681.25 897.778 1781.37 945.555 1881.5 921.667L1855.88 1034.33C1755.75 1058.22 1655.63 1010.44 1555.5 1034.33Z" stroke="#0D0D0D" stroke-width="4.58333" stroke-miterlimit="8" fill="#E2F0D9" fill-rule="evenodd"/><text font-family="Calibri,Calibri_MSFontService,sans-serif" font-weight="400" font-size="83" transform="matrix(1 0 0 1 1630.56 1005)">HTTP</text><path d="M22.9259-0.943259 201.438 0.634425 201.417 2.926 22.9057 1.34832ZM27.3774 13.9925 0 0 27.6204-13.5064ZM196.966-12.0098 224.343 1.98274 196.723 15.4892Z" fill="#0D0D0D" transform="matrix(1 0 0 -1 1869 976.983)"/><path d="M1356.92 975.854 1545.26 975.854 1545.26 978.146 1356.92 978.146ZM1361.5 990.75 1334 977 1361.5 963.25ZM1540.68 963.25 1568.18 977 1540.68 990.75Z" fill="#0D0D0D"/><path d="M2248.5 629.5C2248.5 616.245 2259.25 605.5 2272.5 605.5L2369.5 605.5C2382.75 605.5 2393.5 616.245 2393.5 629.5L2393.5 725.499C2393.5 738.754 2382.75 749.5 2369.5 749.5L2272.5 749.5C2259.25 749.5 2248.5 738.754 2248.5 725.499Z" stroke="#0D0D0D" stroke-width="4.58333" stroke-miterlimit="8" fill="#DEEBF7" fill-rule="evenodd"/><g><g><g><path d="M109.885 112.739 109.885 27.1145C109.885 18.7718 88.5632 14.2708 68.4999 14.2708 48.4366 14.2708 27.1145 18.7718 27.1145 27.1145L27.1145 112.739C27.1145 121.082 48.4366 125.583 68.4999 125.583 88.5632 125.583 109.885 121.082 109.885 112.739ZM68.4999 17.125C90.5526 17.125 107.031 22.4052 107.031 27.1145 107.031 31.8239 90.5526 37.1041 68.4999 37.1041 46.4472 37.1041 29.9687 31.8239 29.9687 27.1145 29.9687 22.4052 46.4472 17.125 68.4999 17.125ZM29.9687 32.0522C36.432 37.2183 52.8491 39.9583 68.4999 39.9583 84.1507 39.9583 100.568 37.2183 107.031 32.0522L107.031 55.6562C107.031 60.3655 90.5526 65.6457 68.4999 65.6457 46.4472 65.6457 29.9687 60.3655 29.9687 55.6562ZM29.9687 60.5939C36.432 65.7599 52.8491 68.4999 68.4999 68.4999 84.1507 68.4999 100.568 65.7599 107.031 60.5939L107.031 84.1978C107.031 88.9072 90.5526 94.1874 68.4999 94.1874 46.4472 94.1874 29.9687 88.9072 29.9687 84.1978ZM29.9687 112.739 29.9687 89.1355C36.432 94.3015 52.8491 97.0415 68.4999 97.0415 84.1507 97.0415 100.568 94.3015 107.031 89.1355L107.031 112.739C107.031 117.449 90.5526 122.729 68.4999 122.729 46.4472 122.729 29.9687 117.449 29.9687 112.739Z" transform="matrix(1 0 0 1 2252 609)"/><path d="M99.8957 51.3749C99.8957 52.9512 98.6178 54.2291 97.0415 54.2291 95.4652 54.2291 94.1874 52.9512 94.1874 51.3749 94.1874 49.7986 95.4652 48.5208 97.0415 48.5208 98.6178 48.5208 99.8957 49.7986 99.8957 51.3749Z" transform="matrix(1 0 0 1 2252 609)"/><path d="M99.8957 79.9165C99.8957 81.4929 98.6178 82.7707 97.0415 82.7707 95.4652 82.7707 94.1874 81.4929 94.1874 79.9165 94.1874 78.3402 95.4652 77.0624 97.0415 77.0624 98.6178 77.0624 99.8957 78.3402 99.8957 79.9165Z" transform="matrix(1 0 0 1 2252 609)"/><path d="M99.8957 108.458C99.8957 110.034 98.6178 111.312 97.0415 111.312 95.4652 111.312 94.1874 110.034 94.1874 108.458 94.1874 106.882 95.4652 105.604 97.0415 105.604 98.6178 105.604 99.8957 106.882 99.8957 108.458Z" transform="matrix(1 0 0 1 2252 609)"/></g></g></g><path d="M2321.15 771.917 2321.15 854.43 2318.85 854.43 2318.85 771.917ZM2306.25 776.5 2320 749 2333.75 776.5ZM2333.75 849.847 2320 877.347 2306.25 849.847Z" fill="#0D0D0D"/></g></svg>