<svg width="2989" height="597" xmlns="http://www.w3.org/2000/svg" xmlns:xlink="http://www.w3.org/1999/xlink" xml:space="preserve" overflow="hidden"><g transform="translate(-807 -603)"><path d="M809.5 635.307C809.5 618.845 822.845 605.5 839.307 605.5L1687.69 605.5C1704.15 605.5 1717.5 618.845 1717.5 635.307L1717.5 1167.69C1717.5 1184.16 1704.15 1197.5 1687.69 1197.5L839.307 1197.5C822.845 1197.5 809.5 1184.16 809.5 1167.69Z" stroke="#0D0D0D" stroke-width="4.58333" stroke-miterlimit="8" fill="#ECECEC" fill-rule="evenodd" fill-opacity="0.498039"/><text font-family="Calibri,Calibri_MSFontService,sans-serif" font-weight="400" font-size="83" transform="matrix(1 0 0 1 1158.83 707)">INPUT</text><path d="M876.5 874.001C876.5 845.558 899.558 822.5 928.001 822.5L1280 822.5C1308.44 822.5 1331.5 845.558 1331.5 874.001L1331.5 1080C1331.5 1108.44 1308.44 1131.5 1280 1131.5L928.001 1131.5C899.558 1131.5 876.5 1108.44 876.5 1080Z" stroke="#0D0D0D" stroke-width="4.58333" stroke-miterlimit="8" fill="#BDD7EE" fill-rule="evenodd"/><text font-family="Calibri,Calibri_MSFontService,sans-serif" font-weight="400" font-size="83" transform="matrix(1 0 0 1 989.901 931)">Sensor</text><path d="M0 15C-1.33679e-15 6.71571 4.701-1.90969e-15 10.5-3.81939e-15 16.299-7.63878e-15 21 6.71571 21 15 21 23.2842 16.299 29.9999 10.5 29.9999 4.701 29.9999-6.68394e-15 23.2842 0 15Z" stroke="#0D0D0D" stroke-width="4.58333" stroke-miterlimit="8" fill="#D9D9D9" fill-rule="evenodd" transform="matrix(-1 0 0 1 2548.5 960.5)"/><path d="M2923.5 635.307C2923.5 618.845 2936.84 605.5 2953.31 605.5L3763.69 605.5C3780.16 605.5 3793.5 618.845 3793.5 635.307L3793.5 1167.69C3793.5 1184.16 3780.16 1197.5 3763.69 1197.5L2953.31 1197.5C2936.84 1197.5 2923.5 1184.16 2923.5 1167.69Z" stroke="#0D0D0D" stroke-width="4.58333" stroke-miterlimit="8" fill="#ECECEC" fill-rule="evenodd" fill-opacity="0.498039"/><text font-family="Calibri,Calibri_MSFontService,sans-serif" font-weight="400" font-size="83" transform="matrix(1 0 0 1 3216.84 707)">OUTPUT</text><path d="M2093.5 911C2093.5 893.051 2108.05 878.5 2126 878.5L2516 878.5C2533.95 878.5 2548.5 893.051 2548.5 911L2548.5 1041C2548.5 1058.95 2533.95 1073.5 2516 1073.5L2126 1073.5C2108.05 1073.5 2093.5 1058.95 2093.5 1041Z" stroke="#0D0D0D" stroke-width="4.58333" stroke-miterlimit="8" fill="#BDD7EE" fill-rule="evenodd"/><text font-family="Calibri,Calibri_MSFontService,sans-serif" font-weight="400" font-size="83" transform="matrix(1 0 0 1 2212.92 1003)">Server</text><path d="M3271.5 813.001C3271.5 795.051 3286.05 780.5 3304 780.5L3694 780.5C3711.95 780.5 3726.5 795.051 3726.5 813.001L3726.5 943C3726.5 960.949 3711.95 975.5 3694 975.5L3304 975.5C3286.05 975.5 3271.5 960.949 3271.5 943Z" stroke="#0D0D0D" stroke-width="4.58333" stroke-miterlimit="8" fill="#BDD7EE" fill-rule="evenodd"/><text font-family="Calibri,Calibri_MSFontService,sans-serif" font-weight="400" font-size="83" transform="matrix(1 0 0 1 3431.2 905)">App</text><path d="M21.8118 7.1225 205.981 77.6214 205.162 79.7617 20.9925 9.26272ZM20.7671 22.6725 0 0 30.5982-3.01017ZM206.207 64.2116 226.974 86.8841 196.376 89.8943Z" fill="#0D0D0D" transform="matrix(1 0 0 -1 2545 964.884)"/><path d="M1058 1030.85 1124.46 1030.85 1124.46 1033.15 1058 1033.15ZM1119.88 1018.25 1147.38 1032 1119.88 1045.75Z" fill="#0D0D0D"/><path d="M2785.12 1016.67C2885.25 992.778 2985.37 1040.56 3085.5 1016.67L3059.88 1129.33C2959.75 1153.22 2859.63 1105.44 2759.5 1129.33Z" stroke="#0D0D0D" stroke-width="4.58333" stroke-miterlimit="8" fill="#E2F0D9" fill-rule="evenodd"/><text font-family="Calibri,Calibri_MSFontService,sans-serif" font-weight="400" font-size="83" transform="matrix(1 0 0 1 2834.32 1100)">HTTP</text><path d="M2785.12 822.61C2885.25 798.909 2985.37 846.311 3085.5 822.61L3059.88 934.39C2959.75 958.09 2859.63 910.689 2759.5 934.39Z" stroke="#0D0D0D" stroke-width="4.58333" stroke-miterlimit="8" fill="#E2F0D9" fill-rule="evenodd"/><text font-family="Calibri,Calibri_MSFontService,sans-serif" font-weight="400" font-size="83" transform="matrix(1 0 0 1 2819.23 905)">MQTT</text><path d="M2566.81 993.122 2750.98 1063.62 2750.16 1065.76 2565.99 995.263ZM2565.77 1008.67 2545 986 2575.6 982.99ZM2751.21 1050.21 2771.97 1072.88 2741.38 1075.89Z" fill="#0D0D0D"/><path d="M3094.92 876.854 3247.87 876.854 3247.87 879.146 3094.92 879.146ZM3099.5 891.75 3072 878 3099.5 864.25ZM3243.29 864.25 3270.79 878 3243.29 891.75Z" fill="#0D0D0D"/><path d="M1581.12 921.667C1681.25 897.778 1781.37 945.555 1881.5 921.667L1855.88 1034.33C1755.75 1058.22 1655.63 1010.44 1555.5 1034.33Z" stroke="#0D0D0D" stroke-width="4.58333" stroke-miterlimit="8" fill="#E2F0D9" fill-rule="evenodd"/><text font-family="Calibri,Calibri_MSFontService,sans-serif" font-weight="400" font-size="83" transform="matrix(1 0 0 1 1630.56 1005)">HTTP</text><path d="M22.9259-0.943259 201.438 0.634425 201.417 2.926 22.9057 1.34832ZM27.3774 13.9925 0 0 27.6204-13.5064ZM196.966-12.0098 224.343 1.98274 196.723 15.4892Z" fill="#0D0D0D" transform="matrix(1 0 0 -1 1869 976.983)"/><path d="M1353.92 975.903 1545.19 976.314 1545.18 978.606 1353.91 978.195ZM1358.47 990.809 1331 977 1358.53 963.309ZM1540.63 963.7 1568.1 977.509 1540.57 991.2Z" fill="#0D0D0D"/><path d="M2248.5 630.667C2248.5 617.32 2259.32 606.5 2272.67 606.5L2369.33 606.5C2382.68 606.5 2393.5 617.32 2393.5 630.667L2393.5 727.333C2393.5 740.68 2382.68 751.5 2369.33 751.5L2272.67 751.5C2259.32 751.5 2248.5 740.68 2248.5 727.333Z" stroke="#0D0D0D" stroke-width="4.58333" stroke-miterlimit="8" fill="#DEEBF7" fill-rule="evenodd"/><g><g><g><path d="M109.885 112.739 109.885 27.1145C109.885 18.7718 88.5632 14.2708 68.4999 14.2708 48.4366 14.2708 27.1145 18.7718 27.1145 27.1145L27.1145 112.739C27.1145 121.082 48.4366 125.583 68.4999 125.583 88.5632 125.583 109.885 121.082 109.885 112.739ZM68.4999 17.125C90.5526 17.125 107.031 22.4052 107.031 27.1145 107.031 31.8239 90.5526 37.1041 68.4999 37.1041 46.4472 37.1041 29.9687 31.8239 29.9687 27.1145 29.9687 22.4052 46.4472 17.125 68.4999 17.125ZM29.9687 32.0522C36.432 37.2183 52.8491 39.9583 68.4999 39.9583 84.1507 39.9583 100.568 37.2183 107.031 32.0522L107.031 55.6562C107.031 60.3655 90.5526 65.6457 68.4999 65.6457 46.4472 65.6457 29.9687 60.3655 29.9687 55.6562ZM29.9687 60.5939C36.432 65.7599 52.8491 68.4999 68.4999 68.4999 84.1507 68.4999 100.568 65.7599 107.031 60.5939L107.031 84.1978C107.031 88.9072 90.5526 94.1874 68.4999 94.1874 46.4472 94.1874 29.9687 88.9072 29.9687 84.1978ZM29.9687 112.739 29.9687 89.1355C36.432 94.3015 52.8491 97.0415 68.4999 97.0415 84.1507 97.0415 100.568 94.3015 107.031 89.1355L107.031 112.739C107.031 117.449 90.5526 122.729 68.4999 122.729 46.4472 122.729 29.9687 117.449 29.9687 112.739Z" transform="matrix(1 0 0 1 2252 610)"/><path d="M99.8957 51.3749C99.8957 52.9512 98.6178 54.2291 97.0415 54.2291 95.4652 54.2291 94.1874 52.9512 94.1874 51.3749 94.1874 49.7986 95.4652 48.5208 97.0415 48.5208 98.6178 48.5208 99.8957 49.7986 99.8957 51.3749Z" transform="matrix(1 0 0 1 2252 610)"/><path d="M99.8957 79.9165C99.8957 81.4929 98.6178 82.7707 97.0415 82.7707 95.4652 82.7707 94.1874 81.4929 94.1874 79.9165 94.1874 78.3402 95.4652 77.0624 97.0415 77.0624 98.6178 77.0624 99.8957 78.3402 99.8957 79.9165Z" transform="matrix(1 0 0 1 2252 610)"/><path d="M99.8957 108.458C99.8957 110.034 98.6178 111.312 97.0415 111.312 95.4652 111.312 94.1874 110.034 94.1874 108.458 94.1874 106.882 95.4652 105.604 97.0415 105.604 98.6178 105.604 99.8957 106.882 99.8957 108.458Z" transform="matrix(1 0 0 1 2252 610)"/></g></g></g><path d="M2321.15 773.917 2321.15 855.376 2318.85 855.376 2318.85 773.917ZM2306.25 778.5 2320 751 2333.75 778.5ZM2333.75 850.792 2320 878.292 2306.25 850.792Z" fill="#0D0D0D"/><path d="M1147.5 984.667C1147.5 971.32 1158.32 960.5 1171.67 960.5L1268.33 960.5C1281.68 960.5 1292.5 971.32 1292.5 984.667L1292.5 1081.33C1292.5 1094.68 1281.68 1105.5 1268.33 1105.5L1171.67 1105.5C1158.32 1105.5 1147.5 1094.68 1147.5 1081.33Z" stroke="#0D0D0D" stroke-width="4.58333" stroke-miterlimit="8" fill="#DEEBF7" fill-rule="evenodd"/><g><g><g><path d="M1280.61 989.26 1166.26 989.26 1166.26 1077.78 1280.61 1077.78ZM1277.75 1074.92 1169.12 1074.92 1169.12 1012.09 1277.75 1012.09ZM1277.75 1009.24 1169.12 1009.24 1169.12 992.115 1277.75 992.115Z"/><path d="M1247.76 1000.68C1247.76 1002.25 1246.48 1003.53 1244.91 1003.53 1243.33 1003.53 1242.05 1002.25 1242.05 1000.68 1242.05 999.101 1243.33 997.823 1244.91 997.823 1246.48 997.823 1247.76 999.101 1247.76 1000.68Z"/><path d="M1257.75 1000.68C1257.75 1002.25 1256.47 1003.53 1254.9 1003.53 1253.32 1003.53 1252.04 1002.25 1252.04 1000.68 1252.04 999.101 1253.32 997.823 1254.9 997.823 1256.47 997.823 1257.75 999.101 1257.75 1000.68Z"/><path d="M1267.74 1000.68C1267.74 1002.25 1266.46 1003.53 1264.89 1003.53 1263.31 1003.53 1262.03 1002.25 1262.03 1000.68 1262.03 999.101 1263.31 997.823 1264.89 997.823 1266.46 997.823 1267.74 999.101 1267.74 1000.68Z"/><path d="M1187.53 1051.76 1189.55 1053.77 1204.11 1039.21 1188.83 1023.93 1186.81 1025.95 1200.08 1039.21 1187.53 1051.76Z"/><path d="M1209.23 1050.62 1232.06 1050.62 1232.06 1053.48 1209.23 1053.48Z"/></g></g></g><path d="M913.5 984.667C913.5 971.32 924.32 960.5 937.667 960.5L1034.33 960.5C1047.68 960.5 1058.5 971.32 1058.5 984.667L1058.5 1081.33C1058.5 1094.68 1047.68 1105.5 1034.33 1105.5L937.667 1105.5C924.32 1105.5 913.5 1094.68 913.5 1081.33Z" stroke="#0D0D0D" stroke-width="4.58333" stroke-miterlimit="8" fill="#DEEBF7" fill-rule="evenodd"/><g><g><g><path d="M1040.63 1026.14 959.674 992.55 946.545 1024.24 972.375 1035.09 975.229 1036.23 975.229 1040C975.223 1046.31 970.107 1051.43 963.794 1051.44L940.979 1051.44 940.979 984.979 938.125 984.979 938.125 1082.02 940.979 1082.02 940.979 1054.29 963.794 1054.29C971.682 1054.28 978.075 1047.89 978.083 1040L978.083 1037.37 980.937 1038.51 1009.8 1050.41 1017.67 1044.22 1030.96 1049.87 1046.22 1037.87 1032.96 1032.18ZM1009.35 1047.14 982.001 1035.86 973.482 1032.46 950.269 1022.71 961.219 996.282 1035.04 1026.92ZM1040.68 1038.59 1030.53 1046.58 1020.24 1042.21 1030.41 1034.2Z"/><path d="M976.656 1016.39C973.504 1016.39 970.948 1018.94 970.948 1022.1 970.948 1025.25 973.504 1027.81 976.656 1027.81 979.809 1027.81 982.365 1025.25 982.365 1022.1 982.354 1018.95 979.805 1016.4 976.656 1016.39ZM976.656 1024.95C975.08 1024.95 973.802 1023.67 973.802 1022.1 973.802 1020.52 975.08 1019.24 976.656 1019.24 978.233 1019.24 979.51 1020.52 979.51 1022.1 979.512 1023.67 978.235 1024.95 976.659 1024.95 976.658 1024.95 976.657 1024.95 976.656 1024.95Z"/></g></g></g></g></svg>